<?xml version="1.0" encoding="utf-8"?>
<!-- Generator: Adobe Illustrator 24.2.3, SVG Export Plug-In . SVG Version: 6.00 Build 0)  -->
<svg version="1.1" id="Layer_1" xmlns="http://www.w3.org/2000/svg" xmlns:xlink="http://www.w3.org/1999/xlink" x="0px" y="0px"
	 viewBox="0 0 2598 666.4" style="enable-background:new 0 0 2598 666.4;" xml:space="preserve">
<style type="text/css">
	.st0{fill:#0023A0;}
	.st1{fill:#FFAB00;}
	.st2{fill:#EA601C;}
	.st3{fill:#E31222;}
	.st4{fill:#F59E21;}
	.st5{fill:#003399;}
	.st6{fill-rule:evenodd;clip-rule:evenodd;fill:#003399;}
	.st7{font-family:'HelveticaNeue-MediumItalic';}
	.st8{font-size:35.8003px;}
	.st9{fill-rule:evenodd;clip-rule:evenodd;fill:#00ACD8;}
	.st10{fill-rule:evenodd;clip-rule:evenodd;fill:#FFFFFF;}
	.st11{fill-rule:evenodd;clip-rule:evenodd;}
	.st12{fill:#0096B8;}
	.st13{fill:#005675;}
	.st14{fill:#0BBBEF;}
	.st15{fill:#007290;}
	.st16{fill:#81B73E;}
	.st17{fill:#69931D;}
	.st18{fill:#277933;}
	.st19{fill:#AECC53;}
	.st20{fill:#E4032E;}
	.st21{fill:#B51227;}
	.st22{fill:#791B15;}
	.st23{fill:#EA5160;}
	.st24{fill:#003D79;}
	.st25{fill:url(#SVGID_1_);}
	.st26{fill-rule:evenodd;clip-rule:evenodd;fill:#006675;}
	.st27{fill-rule:evenodd;clip-rule:evenodd;fill:#E25201;}
</style>
<g>
	<g>
		<path class="st0" d="M380.4,82c-35.1,0-59.8,18.7-60,45.4c-0.2,19.8,17.6,30.8,31.1,37.4c13.9,6.7,18.5,11,18.4,17.1
			c-0.1,9.2-11.1,13.4-21.3,13.4c-14.2,0-21.8-2.1-33.4-7.2l-4.6-2.2l-5,30.8c8.3,3.8,23.6,7.1,39.6,7.3c37.3,0,61.5-18.5,61.8-47
			c0.1-15.7-9.3-27.6-29.8-37.4c-12.4-6.4-20-10.6-19.9-17.1c0-5.7,6.4-11.8,20.3-11.8c11.6-0.2,20,2.5,26.6,5.3l3.2,1.6l4.8-29.8
			C405.2,85.1,394.1,82,380.4,82L380.4,82z M270.1,84.4l-22.2,137.5h35.5l22.2-137.5L270.1,84.4L270.1,84.4z M218.1,84.6l-34.8,93.7
			l-3.7-19c-8.7-23.3-27.4-47.8-49.2-57.8l31.8,120.3h37.6l55.9-137.2L218.1,84.6L218.1,84.6z M475.8,84.6
			c-8.5,0-14.9,2.4-18.6,11.4l-52.7,126h37.3c0,0,6.1-17,7.5-20.7c4.1,0,40.3,0.1,45.5,0.1c1.1,4.8,4.3,20.6,4.3,20.6h33L503.2,84.6
			H475.8L475.8,84.6z M478.3,121.6l2.4,11.9c0,0,6.8,32.8,8.2,39.7h-29.5c2.9-7.9,14.1-38.4,14.1-38.4
			C473.4,135.1,476.5,126.8,478.3,121.6L478.3,121.6z"/>
		<path class="st1" d="M151.1,84.5H93.9l-0.3,2.4c44.5,11.4,73.9,39.3,86.1,72.4l-12.4-63.2C165.1,87.4,158.8,84.8,151.1,84.5"/>
	</g>
	<g>
		<path d="M886.7,259.9c0-4.5,2.9-8.1,7.7-8.1c4.6,0,7.7,3.5,7.7,8.1s-3.1,8.2-7.7,8.2C889.6,268.1,886.7,264.4,886.7,259.9
			 M907.3,259.9v-12.7h-5.5v3.1c-1.8-2.3-4.4-3.7-8.1-3.7c-7.1,0-12.7,5.6-12.7,13.4s5.6,13.4,12.7,13.4c3.6,0,6.3-1.4,8.1-3.7v3.1
			h5.5V259.9z M1094.3,259.9c0-4.5,2.9-8.1,7.7-8.1c4.6,0,7.7,3.5,7.7,8.1s-3.1,8.2-7.7,8.2C1097.2,268.1,1094.3,264.4,1094.3,259.9
			 M1114.9,259.9V237h-5.5v13.3c-1.8-2.3-4.4-3.7-8-3.7c-7.1,0-12.7,5.6-12.7,13.4s5.6,13.4,12.7,13.4c3.6,0,6.3-1.4,8-3.7v3.1h5.5
			V259.9z M976,251.5c3.6,0,5.9,2.2,6.4,6.2h-13.2C969.8,254,972,251.5,976,251.5 M976.1,246.6c-7.4,0-12.7,5.4-12.7,13.4
			c0,8.1,5.4,13.4,13,13.4c3.8,0,7.3-0.9,10.4-3.6l-2.7-4.1c-2.1,1.7-4.9,2.7-7.4,2.7c-3.6,0-6.8-1.7-7.6-6.2H988
			c0.1-0.7,0.1-1.4,0.1-2.1C988.1,252,983.2,246.6,976.1,246.6 M1042.9,259.9c0-4.5,2.9-8.1,7.7-8.1c4.6,0,7.7,3.5,7.7,8.1
			s-3.1,8.2-7.7,8.2C1045.8,268.1,1042.9,264.4,1042.9,259.9 M1063.5,259.9v-12.7h-5.5v3.1c-1.8-2.3-4.4-3.7-8.1-3.7
			c-7.1,0-12.7,5.6-12.7,13.4s5.6,13.4,12.7,13.4c3.6,0,6.3-1.4,8.1-3.7v3.1h5.5V259.9z M1011.7,259.9c0,7.7,5.4,13.4,13.6,13.4
			c3.8,0,6.4-0.8,9.2-3l-2.7-4.5c-2.1,1.5-4.3,2.3-6.7,2.3c-4.4-0.1-7.7-3.2-7.7-8.2c0-4.9,3.3-8.1,7.7-8.1c2.4,0,4.6,0.8,6.7,2.3
			l2.7-4.5c-2.8-2.2-5.3-3-9.2-3C1017,246.6,1011.7,252.2,1011.7,259.9 M1083,246.6c-3.2,0-5.3,1.5-6.7,3.7v-3.1h-5.5v25.4h5.5
			v-14.3c0-4.2,1.8-6.6,5.4-6.6c1.1,0,2.3,0.2,3.5,0.6l1.7-5.2C1085.7,246.8,1084.1,246.6,1083,246.6 M934.7,249.2
			c-2.7-1.7-6.3-2.6-10.4-2.6c-6.4,0-10.6,3.1-10.6,8.1c0,4.2,3.1,6.7,8.8,7.5l2.6,0.4c3,0.4,4.5,1.2,4.5,2.7c0,2-2,3.1-5.8,3.1
			s-6.6-1.2-8.5-2.7l-2.6,4.3c3,2.3,6.9,3.3,11,3.3c7.3,0,11.6-3.5,11.6-8.3c0-4.5-3.4-6.8-8.9-7.6l-2.6-0.4
			c-2.4-0.3-4.3-0.8-4.3-2.5c0-1.9,1.8-3,4.9-3c3.2,0,6.4,1.2,7.9,2.2L934.7,249.2z M1006.1,246.6c-3.2,0-5.3,1.5-6.7,3.7v-3.1h-5.5
			v25.4h5.5v-14.3c0-4.2,1.8-6.6,5.4-6.6c1.1,0,2.3,0.2,3.5,0.6l1.7-5.2C1008.8,246.8,1007.2,246.6,1006.1,246.6 M958.8,247.2h-9.1
			v-7.7h-5.6v7.7H939v5.1h5.2v11.6c0,5.9,2.3,9.4,8.9,9.4c2.4,0,5.2-0.7,6.9-2l-1.6-4.7c-1.7,1-3.5,1.4-4.9,1.4
			c-2.8,0-3.7-1.7-3.7-4.3v-11.5h9.1v-5H958.8z M876.1,272.6v-16c0-6-3.8-10.1-10-10.1c-3.3-0.1-6.6,1-8.9,4.5
			c-1.8-2.8-4.5-4.5-8.4-4.5c-2.7,0-5.4,0.8-7.5,3.8v-3.1h-5.5v25.4h5.6v-14.1c0-4.4,2.5-6.8,6.2-6.8s5.5,2.4,5.5,6.7v14.2h5.6
			v-14.1c0-4.4,2.6-6.8,6.2-6.8c3.8,0,5.6,2.4,5.6,6.7v14.2H876.1z"/>
		<rect x="932.8" y="53.2" class="st2" width="83.9" height="150.7"/>
		<path class="st3" d="M938.2,128.6c0-30.6,14.3-57.8,36.6-75.4c-16.3-12.8-36.9-20.5-59.2-20.5c-52.9,0-95.8,42.9-95.8,95.9
			c0,52.9,42.9,95.9,95.8,95.9c22.4,0,42.9-7.7,59.2-20.5C952.5,186.4,938.2,159.2,938.2,128.6"/>
		<path class="st4" d="M1129.8,128.6c0,52.9-42.9,95.9-95.9,95.9c-22.4,0-42.9-7.7-59.2-20.5c22.3-17.6,36.6-44.8,36.6-75.4
			S997,70.8,974.7,53.2c16.3-12.8,36.9-20.5,59.2-20.5C1086.9,32.7,1129.8,75.6,1129.8,128.6"/>
	</g>
	<g>
		<g>
			<path class="st5" d="M1522.6,82c15.7,0.1,31.9,3.8,48.5,11.2l0.8,0.3l0.3,0.8v0.1l0,0c1.3,4.1,2.5,8.2,3.5,12.3
				c1,4.1,1.7,8.2,2.3,12.3c0.8,5.4,1.2,10.7,1.3,16.1v6.3c-0.3,13.6-2.7,27.2-7.1,40.8l-0.3,0.8l-0.8,0.3
				c-15.7,7-31.5,10.4-47.3,10.4c-0.4,0-0.8,0-1.2,0v-3.8c0.4,0,0.8,0,1.2,0c14.9,0,30-3.2,45-9.7c6.5-20.2,8.3-40.5,5.4-60.7
				c-0.6-3.9-1.3-8-2.3-12c-0.8-3.7-1.9-7.5-3.1-11.2c-15.9-7-31.3-10.5-46.2-10.5L1522.6,82L1522.6,82z M1476.4,93.3
				c14.7-7.5,30-11.2,45.8-11.2c0.1,0,0.2,0,0.3,0v3.8c-0.1,0-0.2,0-0.3,0c-15,0-29.4,3.5-43.4,10.5c-5.7,13.5-8.9,27.2-9,41.2
				c-0.2,13.9,2.6,28.1,9,42.6c14.6,6.4,29.2,9.6,43.8,9.8v3.8c-15.3-0.2-30.7-3.6-46-10.4l-1-1c-6.5-14.6-9.6-29-9.6-43.1v-1
				c0-0.3,0-0.5,0-0.8c0.2-14.7,3.6-29.1,9.6-43.3L1476.4,93.3z"/>
			<path class="st6" d="M1523.6,169.1c-0.8-10.7-0.3-21.9-3.5-32.1c-3-9.6-14.3-15-14.5-25.5c-0.2-8.2,6-17.7,17.7-17.7
				c11-0.1,17.8,7.9,18.5,16.8c1,10.3-11.5,17.2-14.8,27C1523.7,147.5,1524.7,158.6,1523.6,169.1z"/>
			<path class="st6" d="M1527.9,166.5c-0.4-9.3-0.4-18.3,2.1-26.2c2.9-9,8.8-16.6,17.9-19.1c6.2-1.7,15.4,5.6,13.9,13.1
				c-1.2,6-7.2,13.1-16.9,13.9c-4.5,0.4-6.4,4-9.2,6.1c12.6-1.2,20.7-6.2,26.4-11.4c0.8,4.4,1.4,11.7-2,14.3
				c-6.7,4.8-13,0.9-20.9,3.1C1534.8,161.6,1532.1,164.5,1527.9,166.5z"/>
			<path class="st6" d="M1519.3,166.5c0.5-9.3,0.4-18.3-2.1-26.2c-2.9-9-8.8-16.6-17.9-19.1c-6.2-1.7-15.5,5.6-13.9,13.1
				c1.2,6,7.2,13.1,16.9,13.9c4.4,0.4,6.4,4,9.2,6.1c-12.6-1.2-20.7-6.2-26.4-11.4c-0.8,4.4-1.4,11.7,2,14.3
				c6.7,4.8,13,0.9,20.9,3.1C1512.5,161.6,1515.2,164.5,1519.3,166.5z"/>
			<path class="st6" d="M1549.3,180.4v-1.5l1.1-0.3l-1.1-1.7v-2.8l5.1,7l-1.8,0.4l-1.2-1.7L1549.3,180.4z M1549.3,174.1v2.8
				l-0.8-1.1l-0.3,3.4l1.1-0.3v1.5l-1.3,0.3l-0.2,2.1l-1.8,0.4l1.2-9.2l1.8-0.4L1549.3,174.1L1549.3,174.1z M1532.5,185.2v-1.5h0.4
				c0.6-0.1,1-0.1,1.2-0.2c0.2-0.1,0.4-0.2,0.6-0.4s0.2-0.4,0.2-0.7c-0.1-0.3-0.1-0.5-0.3-0.7c-0.1-0.2-0.3-0.3-0.6-0.3
				c-0.2-0.1-0.7-0.1-1.5,0V180c0.4,0,0.7-0.1,0.8-0.1c0.3-0.1,0.5-0.2,0.7-0.4s0.2-0.4,0.2-0.7s-0.1-0.5-0.3-0.6
				c-0.1-0.2-0.3-0.3-0.7-0.3c-0.1,0-0.3,0-0.7,0.1v-1.5c0.6-0.1,1.1-0.1,1.3,0c0.3,0,0.7,0.1,1,0.3c0.3,0.1,0.5,0.3,0.7,0.6
				s0.3,0.6,0.3,1c0.1,0.4-0.1,0.8-0.2,1.1c-0.2,0.3-0.4,0.6-0.8,0.8c0.6,0.1,1,0.3,1.3,0.7c0.3,0.3,0.5,0.7,0.6,1.2
				c0,0.4-0.1,0.8-0.2,1.2c-0.2,0.4-0.4,0.7-0.7,1c-0.3,0.2-0.7,0.4-1.1,0.5c-0.3,0.1-1,0.1-2.1,0.2L1532.5,185.2L1532.5,185.2z
				 M1543.1,180.5l1.7,0.2c-0.1,1-0.4,1.7-0.9,2.3c-0.5,0.5-1.2,0.9-2.1,1.1c-1.1,0.2-2.1-0.1-3-0.7c-0.9-0.7-1.4-1.6-1.7-3
				c-0.2-1.4-0.1-2.6,0.6-3.5c0.6-0.9,1.5-1.5,2.6-1.7s1.9,0,2.7,0.5c0.4,0.3,0.8,0.7,1.1,1.4l-1.6,0.7c-0.2-0.4-0.4-0.7-0.8-0.9
				s-0.8-0.3-1.2-0.2c-0.6,0.1-1.1,0.4-1.4,1s-0.4,1.3-0.2,2.3c0.2,1.1,0.6,1.8,1,2.2s1,0.6,1.6,0.4c0.4-0.1,0.8-0.3,1.1-0.7
				C1542.9,181.6,1543.1,181.1,1543.1,180.5z M1532.5,176.6v1.5c-0.2,0-0.4,0.1-0.7,0.1l-1,0.1l0.2,2l1.2-0.1c0.1,0,0.3,0,0.4-0.1
				v1.5c0,0,0,0-0.1,0l-1.3,0.1l0.2,2.3l1.2-0.1v1.5l-2.8,0.3l-0.8-8.6l3.4-0.3C1532.4,176.6,1532.5,176.6,1532.5,176.6
				L1532.5,176.6z M1521.7,182.3v-1.5c0.4,0,0.6-0.1,0.8-0.1c0.2-0.1,0.4-0.2,0.6-0.4c0.1-0.2,0.2-0.4,0.2-0.7
				c0.1-0.3-0.1-0.6-0.2-0.8c-0.2-0.2-0.4-0.3-0.7-0.4c-0.2,0-0.3-0.1-0.6-0.1v-1.5c0.8,0,1.3,0.1,1.6,0.2c0.5,0.1,0.9,0.4,1.2,0.8
				c0.3,0.4,0.5,1,0.4,1.7c0,0.5-0.1,1-0.3,1.3c-0.2,0.3-0.4,0.6-0.7,0.8c-0.3,0.2-0.6,0.3-1,0.4
				C1522.7,182.3,1522.2,182.3,1521.7,182.3z M1521.7,176.9v1.5c-0.2,0-0.4,0-0.7,0l-0.8-0.1v2.5h0.9c0.2,0,0.4,0,0.6,0v1.5
				c-0.1,0-0.3,0-0.4,0h-1.1l-0.1,3.3l-1.7-0.1l0.2-8.6l2.8,0.1C1521.4,176.9,1521.6,176.9,1521.7,176.9L1521.7,176.9z
				 M1505.4,181.4v-2.6c0.5,0.1,0.8,0.1,1,0.1c0.2-0.1,0.4-0.1,0.6-0.3c0.1-0.2,0.2-0.3,0.3-0.6c0.1-0.3,0-0.5-0.1-0.7
				s-0.3-0.3-0.6-0.4c-0.1-0.1-0.5-0.1-1.1-0.2v-1.5l0.7,0.1c0.9,0.2,1.5,0.3,1.9,0.6c0.4,0.2,0.7,0.6,0.8,1
				c0.2,0.4,0.2,0.9,0.1,1.4c-0.1,0.6-0.4,1.1-0.8,1.5c-0.4,0.3-1,0.5-1.8,0.5c0.3,0.3,0.6,0.6,0.8,0.8c0.2,0.3,0.4,0.8,0.7,1.6
				l0.7,1.9l-2-0.4l-0.9-2.1C1505.6,181.8,1505.5,181.6,1505.4,181.4L1505.4,181.4z M1510.4,176.1l1.7,0.2l-0.4,4.7
				c-0.1,0.7-0.1,1.2-0.1,1.4c0.1,0.4,0.2,0.7,0.4,0.9c0.3,0.3,0.6,0.4,1.1,0.4c0.5,0.1,0.9-0.1,1.1-0.2c0.3-0.2,0.4-0.4,0.6-0.7
				c0.1-0.3,0.1-0.8,0.2-1.5l0.4-4.8l1.7,0.2l-0.4,4.5c-0.1,1.1-0.2,1.8-0.3,2.2c-0.1,0.4-0.3,0.8-0.6,1c-0.3,0.3-0.7,0.5-1.1,0.6
				c-0.4,0.2-1,0.2-1.6,0.1c-0.8-0.1-1.5-0.2-1.9-0.4s-0.7-0.5-1-0.8c-0.2-0.3-0.3-0.7-0.4-1c-0.1-0.5-0.1-1.2,0-2.2L1510.4,176.1z
				 M1496.7,178.6l0.3-1.4l3.7,1l-0.9,3.3c-0.4,0.3-1,0.4-1.8,0.5c-0.7,0.1-1.4,0-2.1-0.2c-0.9-0.2-1.6-0.6-2.1-1.1
				c-0.6-0.6-0.9-1.2-1.1-2c-0.1-0.8-0.1-1.6,0.1-2.4c0.2-0.8,0.6-1.6,1.2-2.2c0.5-0.6,1.2-0.9,2-1.1c0.6-0.2,1.3-0.1,2.1,0.1
				c1,0.3,1.8,0.7,2.2,1.3c0.4,0.6,0.7,1.3,0.6,2.1l-1.7-0.1c0-0.4-0.1-0.8-0.4-1.2c-0.3-0.3-0.6-0.6-1.1-0.7
				c-0.7-0.2-1.3-0.1-1.9,0.2s-1,1-1.2,1.9c-0.3,1-0.2,1.8,0.1,2.4c0.3,0.6,0.8,1,1.5,1.2c0.4,0.1,0.7,0.1,1.1,0.1
				c0.4-0.1,0.7-0.2,1.1-0.3l0.3-1.1L1496.7,178.6L1496.7,178.6z M1505.4,175.1l-2.9-0.5l-1.5,8.5l1.7,0.3l0.6-3.5l0.4,0.1
				c0.4,0.1,0.7,0.2,0.8,0.2c0.2,0.1,0.3,0.3,0.4,0.4c0.1,0.2,0.2,0.4,0.4,0.8v-2.6c-0.2,0-0.3-0.1-0.6-0.1l-1.2-0.2l0.3-2.1
				l1.3,0.2c0.1,0,0.1,0,0.1,0v-1.5H1505.4z"/>
			<path class="st6" d="M1773.3,164.6v-15.8h7v-27.9l-7,13.9V100h27.4l7,80.1h-27.4v-15.6h-7V164.6z M1773.3,100.1v34.8l-7,13.9h7
				v15.8h-13.1l-5.4,14.7h-17V161l18.9-40.9h-3.9l10.8-20.1L1773.3,100.1L1773.3,100.1z M1737.7,126.7l8.5-20.1l-8.5-4.7V126.7z
				 M1670.3,119c0.4-2.3,0.4-4.6,0-6.7V119L1670.3,119z M1737.7,101.9v24.8l-1.1,2.7c-16.7-12-41.5-1.1-42.9,11.6
				c-1.4,13.2,8.7,23.9,34.3,15.9l-8.8,23.6c-33.9,3.8-47-9.7-49-25.3v-8.9c0.5-4.1,1.6-8.1,3-11.8c16.7-41.5,43.8-32.1,54.1-32.9
				l1.5-4.6L1737.7,101.9L1737.7,101.9z M1737.7,161l-8.5,18.3h8.5V161z M1639.8,178.8c18.2-3.6,36-25.4,18.1-42.8
				c7-3.7,11.3-10.4,12.4-17v-6.7c-1.2-6.9-6.6-12.5-16.6-12.7l-13.8-0.3v15.4h5.7c6.1,0,5.3,15.8-2.3,15.8h-3.4v12.1
				c8.3,1.6,5.3,13,0,16.6L1639.8,178.8L1639.8,178.8z M1670.3,146.3v8.9C1669.9,152.3,1669.9,149.3,1670.3,146.3z M1615.9,98.9
				l-11.2,21.7l5-0.4l-13.5,59.2h38.6c1.7,0,3.3-0.2,5-0.5v-19.5c-1,0.7-2,1.1-3.1,1.1h-13.9l4.6-17.8h10.4c0.7,0,1.4,0.1,2,0.2
				v-12.1h-9.7l3.9-15.8h5.8V99.4L1615.9,98.9z"/>
		</g>
		<text transform="matrix(1 0 0 1 1468.7871 230.7406)" class="st5 st7 st8">VIRTUAL ACCOUNT</text>
	</g>
	<g>
		<g>
			<path class="st9" d="M125.3,569.6c30.9,0,56.2-25.2,56.2-56.2c0-30.9-25.2-56.2-56.2-56.2s-56.2,25.2-56.2,56.2
				C69.1,544.4,94.3,569.6,125.3,569.6z"/>
			<path class="st10" d="M92.9,526c0.7,9.2,6.5,16.3,17.1,16.8c10.2,0.5,20.4,0.6,30.6,0c9.4-0.6,16.4-7.6,17.1-16.8
				c0.4-4.7,0.5-9.4,0.5-14.2l0,0l0,0c-2.4-12.7-13-13.2-14-13.2l0,0l0,0l0,0h-35.9c-1.3,0-2.3-1-2.3-2.3l0,0c0-1.3,1-2.3,2.3-2.3
				h36c-0.3-8.5-9.8-10.1-14.3-10.4h-2.3l0,0c-5.9-0.1-11.7,0.1-17.6,0.5c-10.8,0.8-16.4,7.6-17.1,16.8
				C92.2,509.3,92.2,517.7,92.9,526L92.9,526z M146.9,521.2v3c0,1.1-0.9,2.1-2.1,2.1l0,0c-1.1,0-2.1-0.9-2.1-2.1v-3.1
				c-0.9-0.6-1.5-1.6-1.5-2.8c0-1.9,1.6-3.4,3.6-3.4s3.6,1.5,3.6,3.4C148.4,519.6,147.8,520.6,146.9,521.2z"/>
		</g>
		<path class="st11" d="M464.8,508.3v10.1c0,0-3.5,6.8-15.4,8.5c-12,1.7-12-5.8-11.1-7.7s3.7-4.6,13.6-6.2
			C462.4,511.3,464.8,508.3,464.8,508.3L464.8,508.3z M478.9,498.6c0-15.7-15.1-23-28.6-21.7c-12.6,1.2-23.1,7.1-26.4,20.2l13,3.2
			c4.1-11.8,19.5-15.2,26.1-6.8c1.8,2.3,1,4.7-1.6,6c-3.8,2-11.1,1.4-18.6,3.4c-31.5,8.6-21.6,37.5,4.5,36.7
			c8.4-0.2,14.4-4.1,18.5-7.9l0.1,6.4h12.9v-39.5H478.9z M232.2,491.4c-9.5,0-17.2,7.7-17.2,17.3c0,9.5,7.7,17.3,17.2,17.3
			s17.2-7.7,17.2-17.3C249.4,499.1,241.7,491.4,232.2,491.4L232.2,491.4z M265.9,478.7V528v9c0,20.4-14.2,32.6-32.2,32.6
			c-12.2,0-21.2-2.9-29.9-12.4l10.7-9.6c5.2,6.1,11.4,7.6,19,7.6c9.2,0,16-7.4,16-16.4v-6c-5.3,4.6-12.2,7.4-19.7,7.4
			c-16.8,0-30.4-13.9-30.4-31.1c0-17.2,13.6-31.1,30.4-31.1c7.5,0,14.4,2.8,19.7,7.4v-6.6L265.9,478.7L265.9,478.7z M556.4,477.7
			h-17.7L521.3,516l-20.1-38.3h-17.7l29.1,54.5l-15.4,31.6h17.7L556.4,477.7L556.4,477.7z M384,491.4c9.5,0,17.2,7.7,17.2,17.3
			c0,9.5-7.7,17.3-17.2,17.3s-17.2-7.7-17.2-17.3C366.8,499.1,374.5,491.4,384,491.4L384,491.4z M350.3,478.7h16.5v6.6
			c5.3-4.6,12.2-7.4,19.7-7.4c16.8,0,30.4,13.9,30.4,31.1c0,17.2-13.6,31.1-30.4,31.1c-7.5,0-14.4-2.8-19.7-7.4v31.1h-16.5V478.7
			L350.3,478.7z M306.4,490.9c10.3,0,18.7,8.1,18.7,18.1s-8.4,18.1-18.7,18.1s-18.7-8.1-18.7-18.1
			C287.7,499,296.1,490.9,306.4,490.9L306.4,490.9z M306.4,476.7c-18.4,0-33.4,14.5-33.4,32.3s14.9,32.3,33.4,32.3
			c18.4,0,33.4-14.5,33.4-32.3S324.8,476.7,306.4,476.7z"/>
	</g>
	<g>
		<path class="st5" d="M2068.6,190c0.3-0.1,0.2-0.3,0.3-0.5c0.7-2.5,1.3-5.1,2-7.6c1.6-6.2,3.2-12.4,4.8-18.6
			c1.7-6.6,3.4-13.2,5.1-19.7c0.3-1.1,0.6-2.3,0.9-3.4c0-0.1,0-0.2,0-0.4c-1.7,0-3.4-0.1-5.1-0.1c0-0.1-0.1-0.1-0.1-0.1s0,0,0-0.1
			s0.1-0.2,0.1-0.3c3.6-6.9,7.1-13.7,10.7-20.6c0.2,0,0.4,0,0.6,0c9.7,0,19.4,0,29,0c2.8,0,5.6,0.3,8.3,1.3s5.1,2.5,6.9,4.8
			c1.5,1.9,2.3,4,2.7,6.4c0.7,4.8-0.6,9-3.4,12.8c-2.5,3.5-5.7,6.2-9.5,8.3c-0.3,0.2-0.6,0.4-1.1,0.6c0.3,0.1,0.4,0.2,0.6,0.3
			c3.9,1.6,6.2,4.6,7.2,8.7c0.4,1.6,0.5,3.2,0.5,4.8c0,1.8-0.1,3.6-0.6,5.3c-1,3.7-2.9,6.9-5.5,9.6c-4.3,4.4-9.5,7-15.5,8
			c-1.8,0.3-3.6,0.5-5.4,0.5c-11,0-22.1,0-33.1,0c-0.2,0-0.4,0-0.6,0C2068.6,190,2068.6,190,2068.6,190z M2093.8,172
			c0.3,0,0.5,0,0.7,0c2.4,0,4.8,0,7.1,0c1.3,0,2.6-0.2,3.9-0.7c1.9-0.7,3.4-1.9,4.2-3.8c0.8-1.9,0.8-3.8-0.6-5.5
			c-1.1-1.3-2.5-1.8-4.2-1.8c-2.5,0-4.9,0-7.4,0c-0.2,0-0.4,0-0.6,0C2095.9,164.1,2094.9,168,2093.8,172z M2100.2,147.6
			c0.4,0,0.6,0,0.8,0c1.7,0,3.3,0,5,0c0.7,0,1.4,0,2.1-0.1c1.5-0.2,2.9-0.7,4-1.7c1.4-1.3,2-3.1,2-5c0-1.7-0.9-2.7-2.5-3.1
			c-0.7-0.2-1.4-0.2-2.1-0.2c-2.1,0-4.2,0-6.3-0.1c-0.2,0-0.4,0-0.7,0.1C2101.8,140.8,2101,144.2,2100.2,147.6z"/>
		<path class="st5" d="M2249.6,190c-7.6,0-15.1,0-22.7,0c0-0.3,0-0.5,0-0.8c0-3.6,0-7.2,0-10.8c0-0.2,0-0.4,0-0.6
			c-0.3,0-0.5-0.1-0.7-0.1c-4.8,0-9.6,0-14.4,0c-0.4,0-0.7,0.2-0.8,0.6c-1.5,3.6-3,7.3-4.5,10.9c-0.1,0.2-0.2,0.5-0.3,0.8
			c-8.2,0-16.4,0-24.7,0c2.1-4.3,4.3-8.5,6.5-12.7s4.3-8.5,6.5-12.7s4.3-8.5,6.5-12.7s4.3-8.5,6.5-12.8c-0.3,0-0.5-0.1-0.7-0.1
			c-1.5,0-3,0-4.5,0c-0.2,0-0.3,0-0.6,0c0.1-0.2,0.1-0.3,0.2-0.4c3.5-6.5,7.1-13,10.6-19.5c0.2-0.4,0.5-0.4,0.8-0.4
			c7.1,0,14.2,0,21.4,0c3.8,0,7.5,0,11.3,0c0.2,0,0.5,0,0.8,0c0,0.4,0.1,0.9,0.1,1.3c0.1,3.4,0.3,6.8,0.4,10.2
			c0.1,2.4,0.2,4.8,0.3,7.2c0.1,2.6,0.2,5.1,0.3,7.7c0.2,4.1,0.3,8.3,0.5,12.4c0.1,2.7,0.2,5.5,0.4,8.2c0.1,2.4,0.2,4.8,0.3,7.2
			c0.1,2.5,0.2,5,0.3,7.5c0.1,3.1,0.3,6.2,0.4,9.3C2249.6,189.6,2249.6,189.8,2249.6,190z M2226.7,140.7c-0.1,0-0.1,0-0.2,0
			c-2.9,6.8-5.8,13.7-8.7,20.5c0.6,0.2,8.5,0.2,9.1,0C2226.9,154.4,2226.8,147.6,2226.7,140.7z"/>
		<path class="st5" d="M2186.9,118c4.9,2.6,9.9,5.2,14.9,7.8c-3.6,6.5-7.2,13-10.8,19.6c-0.2-0.1-0.4-0.3-0.5-0.4
			c-2.3-1.8-4.9-3.3-7.7-4.2c-3-1-6.2-1.3-9.3-1.1c-2.2,0.2-4.4,0.6-6.5,1.4c-6.6,2.6-10.6,7.3-12.2,14.2c-0.7,3.1-0.5,6.2,0.7,9.2
			c1.6,3.7,4.4,6.2,8.1,7.6c2.2,0.8,4.5,1.2,6.9,1.3c3.2,0.2,6.3-0.6,9.3-1.7c2.7-1,5.2-2.2,7.7-3.8c-0.1,0.2-0.1,0.3-0.1,0.4
			c-2.7,5.7-5.4,11.4-8.1,17.1c-0.7,1.5-1.4,3.1-2.2,4.6c-0.1,0.3-0.3,0.5-0.7,0.5c-2.3,0.5-4.7,1-7,1.4c-1.2,0.2-2.4,0.3-3.6,0.3
			c-4.1,0.1-8.2-0.2-12.2-1.1c-4.6-1.1-8.8-3.1-12.4-6.2c-3.9-3.4-6.5-7.8-8-12.8c-1.1-3.8-1.4-7.7-1.1-11.7
			c0.5-6.8,2.8-13,6.3-18.7c4.8-7.8,11.2-13.8,19.5-17.9c4-2,8.2-3.3,12.6-4.1c2.6-0.4,5.2-0.7,7.8-0.7c2-0.1,3.9,0.3,5.7,0.9
			c1.3,0.4,0.9,0.6,1.8-0.5C2186.2,118.9,2186.5,118.5,2186.9,118C2186.8,118.1,2186.8,118.1,2186.9,118z"/>
		<path class="st5" d="M2280.9,170.2c-0.4,0.5-0.7,1-1.1,1.4c-0.4,0.5-0.7,1.1-1.1,1.6c-0.3,0.4-0.4,0.9-0.4,1.4c0,2.4,0,4.8,0,7.1
			c0,3,0,5.9,0,8.9c0,0.2,0,0.5,0,0.8c-4.3,0-8.7,0-12.9,0c-0.1-0.4-0.1-51.6,0-52.2c0.4-0.1,12.3-0.2,13,0c0,0.3,0,0.5,0,0.8
			c0,7.1,0,14.3,0,21.4c0,0.2,0,0.5,0,0.8c0.3-0.1,0.4-0.3,0.5-0.5c2-2.8,4-5.6,6-8.4c3.3-4.6,6.6-9.2,9.9-13.8
			c0.3-0.4,0.6-0.5,1-0.5c4.6,0,9.2,0,13.8,0c0.2,0,0.4,0,0.7,0c-0.2,0.2-0.3,0.4-0.4,0.6c-3,3.9-6,7.8-9,11.7
			c-2.9,3.8-5.9,7.6-8.8,11.5c-0.4,0.5-0.4,0.5,0,1c6.2,8.9,12.4,17.8,18.5,26.7c0.2,0.2,0.3,0.4,0.5,0.7c-0.2,0-0.4,0-0.5,0
			c-4.9,0-9.8,0-14.7,0c-0.4,0-0.6-0.2-0.8-0.5c-3.2-4.8-6.4-9.6-9.6-14.3c-1.3-2-2.7-3.9-4-5.9
			C2281.2,170.6,2281.1,170.4,2280.9,170.2z"/>
		<path class="st5" d="M2415.4,174.4c0,5.7,0,11.4,0,17.1c-4.4,0-8.7,0-13,0c-0.1-0.4-0.2-51.4,0-52.2c0.2,0,0.4-0.1,0.6-0.1
			c6.8,0,13.6,0,20.4,0c2.9,0,5.7,0.3,8.4,1.2c1.7,0.6,3.3,1.3,4.8,2.3c2.9,2,4.7,4.8,5.5,8.2c1,4.4,0.7,8.7-1.1,12.9
			c-1,2.4-2.7,4.3-4.7,6c-2.9,2.4-6.2,3.6-9.8,4.2c-1.4,0.2-2.8,0.3-4.3,0.3c-2,0-3.9,0-5.9,0C2416,174.3,2415.8,174.3,2415.4,174.4
			z M2415.5,164.6c0.2,0,0.3,0,0.4,0c1.9,0,3.8-0.1,5.7-0.1c1.4-0.1,2.7-0.4,3.9-1.1c1.7-0.9,2.8-2.3,3.3-4.1
			c0.4-1.6,0.5-3.2,0.2-4.8c-0.3-1.9-1.3-3.4-3-4.4c-1.2-0.7-2.6-1.1-4-1.2c-2-0.1-4.1-0.1-6.1-0.1c-0.1,0-0.3,0-0.5,0
			C2415.5,154.1,2415.5,159.3,2415.5,164.6z"/>
		<path class="st5" d="M2370.4,191.4c-4.1,0-8.1,0-12.1,0c-0.1-0.4-0.2-53.8,0-54.5c0.4-0.1,11.4-0.2,12.1,0c0.1,1.2,0,2.5,0,3.8
			s0,2.5,0,3.8s0,2.5,0,3.8s0,2.5,0,3.8c0,1.2,0,2.5,0,3.7c0,1.3,0,2.5,0,3.8s0,2.5,0,3.8s0,2.5,0,3.8c0,0,0.1,0,0.1,0.1
			c0.1-0.2,0.3-0.3,0.4-0.5c1.4-1.8,2.7-3.6,4.1-5.4c2.2-3,4.5-5.9,6.7-8.9c0.2-0.3,0.5-0.5,0.9-0.5c4.4,0,8.8,0,13.2,0
			c0.2,0,0.3,0,0.6,0c-4.6,5.7-9.2,11.3-13.7,16.9c4.9,7.5,9.8,14.9,14.8,22.4c-0.2,0-0.3,0.1-0.4,0.1c-4.5,0-9.1,0-13.6,0
			c-0.4,0-0.6-0.2-0.8-0.5c-3.1-4.9-6.1-9.9-9.2-14.8c-0.4-0.6-0.7-1.2-1.1-1.8c-0.1,0-0.2,0-0.2,0.1c-0.6,0.7-1.1,1.5-1.7,2.3
			c-0.1,0.2-0.1,0.4-0.1,0.7c0,1.5,0,3.1,0,4.6c0,2.9,0,5.8,0,8.7C2370.5,190.9,2370.5,191.2,2370.4,191.4z"/>
		<path class="st5" d="M2483,191.4c-4.1,0-8.1,0-12.1,0c0-0.2-0.1-0.4-0.1-0.6c0-0.9,0-1.8,0-2.7c0-0.2,0-0.4,0-0.7
			c-0.2,0.1-0.3,0.2-0.4,0.3c-0.5,0.4-1,0.9-1.6,1.3c-2,1.6-4.2,2.8-6.7,3.2c-2.8,0.5-5.7,0.6-8.4-0.5c-4-1.6-6.5-4.7-7.3-9
			c-0.4-2.1-0.3-4.2,0.1-6.3c0.7-3.1,2.5-5.4,5.2-7c2-1.2,4.1-1.9,6.3-2.4c1.8-0.4,3.6-0.6,5.4-0.8c2.3-0.3,4.5-0.4,6.8-0.6
			c0.2,0,0.4-0.1,0.6-0.1c0.3-1.6-0.5-3.6-1.9-4.5c-1-0.7-2.2-1-3.3-1.2c-3.6-0.7-7.1-0.4-10.6,0.8c-1.4,0.5-2.8,1-4.1,1.5
			c-0.5,0.2-0.9,0.2-1.4,0.2c0-0.2,0-0.4,0-0.6c0-2.7,0-5.4,0-8.1c0-0.7,0-0.7,0.6-0.8c5.1-1.2,10.2-2,15.5-1.8
			c3.1,0.1,6.2,0.5,9.2,1.5c1.9,0.7,3.7,1.6,5.1,3.1c1.7,1.7,2.6,3.8,2.9,6.1c0.2,1.1,0.2,2.1,0.2,3.2c0,8.6,0,17.2,0,25.7
			C2483,190.9,2483,191.1,2483,191.4z M2470.8,172.9c-0.3,0-0.6,0-0.9,0.1c-1.4,0.1-2.8,0.3-4.2,0.5c-1.5,0.2-3,0.5-4.4,1.1
			c-1.5,0.6-2.4,1.7-2.7,3.3c-0.2,0.9-0.1,1.9,0.1,2.8c0.3,1.4,1,2.3,2.3,2.8c1.4,0.5,2.8,0.7,4.3,0.5c2-0.2,3.6-1.1,5.1-2.3
			c0.3-0.3,0.5-0.6,0.5-1c0-2.3,0-4.6,0-7C2470.8,173.4,2470.8,173.2,2470.8,172.9z"/>
		<path class="st5" d="M2495.9,205.9c0.3-0.7,0.5-1.3,0.7-1.9c1.7-4.3,3.3-8.6,5-12.9c0.2-0.4,0.2-0.8,0-1.2
			c-3.1-8.3-6.3-16.6-9.4-24.9c-1.5-4.1-3.1-8.2-4.6-12.3c-0.1-0.2-0.1-0.4-0.2-0.7c0.3,0,0.4,0,0.6,0c3.8,0,7.7,0,11.5,0
			c0.6,0,0.7,0,0.9,0.6c1.1,3.3,2.2,6.7,3.4,10c1.5,4.5,3,8.9,4.5,13.4c0.1,0.2,0.2,0.4,0.3,0.6c1-2.7,1.8-5.4,2.6-8.1
			c0.9-2.7,1.7-5.5,2.6-8.2c0.9-2.7,1.7-5.5,2.6-8.2c4.2,0,8.3,0,12.5,0c-0.1,0.3-0.1,0.5-0.2,0.7c-1.1,2.9-2.2,5.8-3.2,8.8
			c-5.4,14.6-10.8,29.2-16.2,43.7c0,0.1-0.1,0.2-0.1,0.3c-0.1,0.3-0.3,0.4-0.6,0.4c-1,0-2,0-3,0c-3,0-5.9,0-8.9,0
			C2496.5,205.9,2496.2,205.9,2495.9,205.9z"/>
		<path class="st5" d="M2326.9,191.4c-4.1,0-8.1,0-12.2,0c0-18.2,0-36.3,0-54.5c0.5-0.2,11.6-0.2,12.2,0
			C2326.9,155.1,2326.9,173.2,2326.9,191.4z"/>
		<path class="st5" d="M2336.5,152.1c0.5-0.1,11.4-0.2,12.1,0c0.1,0.4,0.2,38.2,0.1,39.3c-0.4,0.1-11.4,0.1-12.2,0
			C2336.5,178.3,2336.5,165.2,2336.5,152.1z"/>
		<path class="st5" d="M2349,136.9c0,3.1,0,6.2,0,9.3c-0.4,0.1-12.1,0.2-12.9,0c0-3.1,0-6.2,0-9.3
			C2336.6,136.8,2348.3,136.8,2349,136.9z"/>
	</g>
	<g>
		<g>
			<path d="M2338.2,545.4c-0.1-4.9-1.8-8.3-5.3-10.2c-1.1-0.5-2.4-1-4-1.3c-1.6-0.3-3.4-0.4-5.4-0.4h-7v24.3h7
				c5.1,0,8.8-0.9,11.1-2.9c1.2-1,2-2.3,2.7-3.9C2337.9,549.4,2338.2,547.5,2338.2,545.4 M2316.5,510.9v20.9h7.3
				c8.5-0.1,12.9-3.6,13-10.7c0.1-6.9-4.6-10.2-13.6-10.2L2316.5,510.9L2316.5,510.9z M2310.7,554.6c0-0.8,0.1-2,0.1-3.7V518
				l-0.1-3.2c0-0.7-0.1-1.1-0.1-1.4c0-0.3-0.1-0.5-0.2-0.7c-0.2-0.8-0.8-1.4-1.6-1.7c-0.8-0.3-1.9-0.5-3.3-0.5v-1.1h18.8
				c2.7,0,5.2,0.2,7.4,0.5s4,0.8,5.3,1.5c3.9,1.9,5.9,5,5.8,9.4c0,6.4-4.1,10.4-12.8,11.5l-1.5,0.2c2,0.1,4.6,0.7,5.8,1
				c1.2,0.3,2.4,0.7,3.6,1.3c4.6,2.3,6.9,6,6.8,11.1c0,6.2-3,10.2-9.1,12.1c-1.3,0.4-3,0.7-5.1,0.9c-2,0.2-4.3,0.3-6.6,0.3h-18.4
				v-1.1c2.2,0,3.7-0.4,4.3-1.1c0.3-0.3,0.5-0.6,0.6-0.9C2310.6,555.9,2310.6,555.3,2310.7,554.6"/>
			<path d="M2353.9,550.3c0,2.3,0.6,4.1,1.7,5.5c1.1,1.4,2.6,2.1,4.5,2.2c1.9,0,3.6-0.5,5.3-1.5c1.6-0.9,2.9-2.2,3.9-3.8
				c0.6-1,1-2.3,1.3-3.8s0.4-3.5,0.4-5.8v-3.6c-3.3,0.3-5.7,0.6-7.5,1s-3.3,0.9-4.6,1.6C2355.6,543.7,2354,546.4,2353.9,550.3
				 M2371.7,558c-0.4-0.8-0.7-1.6-0.8-3.9v-0.7l-0.5,0.5c-0.5,0.6-1.1,1.1-1.6,1.6c-0.5,0.4-1.1,0.9-1.8,1.4
				c-1.5,1.1-2.9,1.9-4.3,2.3c-1.4,0.4-2.9,0.7-4.6,0.6c-3,0-5.3-0.7-6.9-2.1c-0.9-0.8-1.6-1.9-2.2-3.1c-0.5-1.3-0.8-2.6-0.8-4.1
				c0-5.4,3.3-8.8,10-10.3c1.8-0.4,3.7-0.8,5.6-1c2-0.3,4.2-0.5,6.7-0.7l0.3-4.7c0-1.6-0.1-2.9-0.2-3.9c-0.2-1-0.4-1.9-0.8-2.6
				c-1-1.9-3-2.9-6-2.9c-4.7,0-7.3,2.2-7.5,6.7c0,0.7-0.1,1.2-0.2,1.5c-0.1,0.3-0.2,0.5-0.5,0.7c-0.5,0.3-1.2,0.5-2.3,0.5
				c-2.3,0-3.2-0.7-3.1-1.8c0-1.2,0.4-2.4,1.2-3.5c0.8-1.1,1.9-2.1,3.4-3c2.6-1.4,6-2.2,10-2.2c4.5,0,7.5,1,9.1,3
				c0.7,0.8,1.2,1.8,1.5,3.1c0.3,1.2,0.5,2.8,0.5,4.7v0.4v1.8l-0.1,4.8l-0.1,6.6l-0.1,3.2c0,1.5,0.1,2.7,0.2,4
				c0.1,1.3,0.5,2.7,1.6,3c1,0.4,2.1,0.5,4,0.6c1.4,0,2.5-0.2,3.2-0.5c0.8-0.4,1.4-1.1,1.6-2.2c0.2-1,0.3-2.6,0.3-4.8v-18.7
				c0-2.5-0.3-4.3-1-5.3c-0.7-0.9-2-1.3-3.8-1.3v-1l10-0.7v7.9l0.5-0.9c1.5-2.6,3.2-4.5,5-5.6c1.9-1.1,4.2-1.7,7-1.6
				c4.2-0.1,7.2,1.4,8.9,4.2c0.6,1,1.1,2.1,1.4,3.4c0.3,1.3,0.4,3.1,0.4,5.1V551c0,2.2,0.1,3.8,0.3,4.8c0.2,1.1,0.7,1.8,1.6,2.2
				c0.7,0.3,2.3,0.4,3.7,0.5c1.3,0,2.3-0.2,3-0.5c0.8-0.4,1.3-1.1,1.5-2.2c0.2-1,0.3-2.6,0.3-4.8v-34c0-1.9-0.1-3.4-0.3-4.3
				c-0.2-1-0.7-1.6-1.5-1.9c-0.7-0.3-1.8-0.4-3.2-0.4v-1l10.4-0.5c-0.1,2.3-0.2,4.7-0.3,7.1c-0.1,2.5-0.1,4.7-0.1,6.6v22.8
				l11.4-12.5c1.6-1.8,2.5-3.3,2.5-4.5c0.1-1.7-1.6-2.4-4.4-2.6v-1h14.9v1c-0.9,0.1-1.7,0.3-2.3,0.5c-0.7,0.2-1.5,0.6-2.2,1.1
				c-0.8,0.5-1.4,0.9-1.9,1.3c-0.5,0.4-1.1,1-1.9,1.7c-0.7,0.7-1.8,1.8-3.1,3.3l-3.8,4.1l9.9,15.5c1.1,1.8,2.2,3.1,3.1,3.9
				c0.9,0.7,2.1,1.2,3.5,1.4v1h-9c-0.2-0.5-0.6-1.2-1-2l-1.4-2.6l-1.1-2l-7.3-11.9l-5.7,6.4v3.6c0,2.1,0.1,3.7,0.3,4.8
				c0.2,1.1,0.7,1.8,1.5,2.2c0.7,0.3,1.8,0.5,3.2,0.5v1H2405v-1c2.1-0.1,3.5-0.4,4.1-1.2c0.2-0.3,0.4-0.6,0.5-1
				c0.1-0.4,0.2-0.9,0.2-1.5c0-0.5,0.1-1.1,0.1-2c0.1-0.9,0.1-1.5,0.1-1.8v-14c0-3.5-0.4-6-1.1-7.7c-1.2-2.6-3.3-3.8-6.4-3.9
				c-3.4,0-6.1,1.6-8.1,4.8c-0.8,1.2-1.3,2.6-1.8,4.1c-0.4,1.5-0.6,3.1-0.6,4.5V551c0,2.2,0.1,3.8,0.3,4.8c0.2,1.1,0.7,1.8,1.6,2.2
				c0.7,0.3,1.8,0.5,3.3,0.5v1h-15c-1.3,0-3.9,0.1-5.1,0.1c-1.3,0-2-0.2-3.2-0.3C2372.5,558.9,2372,558.7,2371.7,558"/>
			<path d="M2060.1,536.4h3.2c3.9,0,6.7-0.9,8.5-2.7c1-1,1.7-2.4,2.3-4.1c0.5-1.7,0.8-3.6,0.8-5.8c0-8.2-3.6-12.4-10.8-12.4h-4
				V536.4z M2060.1,538.3v12.4c0,2,0.1,3.5,0.3,4.4c0.3,1,0.8,1.6,1.7,1.9c0.9,0.3,2.2,0.5,3.9,0.5v1.7h-19.5v-1.7
				c1.7,0,2.9-0.2,3.7-0.5c0.8-0.3,1.3-1,1.6-1.9c0.2-1,0.3-2.5,0.3-4.4V518c0-2-0.1-3.5-0.3-4.4c-0.2-1-0.7-1.6-1.5-1.9
				s-1.9-0.5-3.5-0.6v-1.7h18.5c6.3,0,10.9,1.1,13.8,3.3c2.9,2.2,4.4,5.8,4.3,10.6c0,6.8-2.6,11.2-7.9,13.3c-1.4,0.5-3.1,1-5.3,1.3
				c-2.1,0.3-4.5,0.5-7.1,0.5L2060.1,538.3L2060.1,538.3z"/>
			<path d="M2092.2,538.5h14.2c-0.1-2.1-0.2-3.7-0.3-5c-0.2-1.3-0.4-2.4-0.8-3.4c-1.2-3.5-3-5.2-5.5-5.2c-2.8,0-4.9,2-6.2,5.9
				c-0.4,1-0.6,2.1-0.8,3.3C2092.5,535.3,2092.4,536.8,2092.2,538.5 M2114.9,540.4h-22.7c0,2.4,0.2,4.5,0.4,6.1
				c0.3,1.6,0.7,3.1,1.2,4.5c1.9,4.4,4.8,6.6,8.8,6.6c2.2,0,4.3-0.7,6.1-2c1.8-1.3,3.3-3.2,4.5-5.6l1.6,1.1
				c-1.6,3.2-3.5,5.5-5.8,6.9c-2.3,1.5-5.1,2.2-8.4,2.2c-5.2-0.1-9.9-1.7-12.9-5c-3-3.2-4.5-7.7-4.6-13.3c0.1-5.7,1.5-10.2,4.4-13.5
				c2.9-3.3,7.5-5,12.4-5.1c3.3,0,6.5,0.8,8.7,2.3c2.3,1.5,3.9,3.7,5,6.6c0.3,1,0.6,2,0.8,3.3
				C2114.7,536.7,2114.9,538.4,2114.9,540.4"/>
			<path d="M2116.4,524.4l12.6-0.9c0.1,1.3,0.1,2.3,0.2,3.2c0,0.9,0.1,1.6,0.1,2.3v2c2.7-5,6.1-7.5,9.9-7.6c1.7,0,3,0.5,4.1,1.5
				c1,0.9,1.6,2.2,1.6,3.6c0,1.2-0.5,2.2-1.4,3c-0.9,0.7-2,1.1-3.5,1.1c-1.7,0.1-2.8-0.7-3.2-2.1c-0.2-0.9-0.5-1.5-0.8-1.9
				c-0.3-0.3-0.7-0.5-1.2-0.5h-0.1c-1.3,0.1-2.6,1.2-3.8,3.2c-0.5,1-0.9,2.1-1.2,3.3s-0.4,2.6-0.4,4.2v12.4c0,2,0.1,3.4,0.3,4.4
				c0.2,0.9,0.7,1.5,1.5,1.8c0.8,0.3,2,0.4,3.6,0.5v1.6h-18.6v-1.6c1.5,0,2.6-0.1,3.4-0.4c0.7-0.3,1.2-0.9,1.4-1.9
				c0.2-1,0.3-2.4,0.3-4.4v-18.6c0.1-2.8-0.2-4.6-0.8-5.4c-0.6-0.8-1.9-1.2-4-1.1L2116.4,524.4L2116.4,524.4z"/>
			<path d="M2159.8,523.5l0.1,6.6c2.7-4.5,6.6-6.7,11.7-6.8c5.2,0,8.3,2.3,9.5,7c1.5-2.4,3.1-4.2,5-5.4c1.9-1.1,4.1-1.7,6.5-1.7
				c3.9,0,6.9,1.3,8.7,3.9c0.7,1,1.2,2.2,1.6,3.6c0.3,1.4,0.5,3.2,0.5,5.5V551c0,2,0.1,3.4,0.3,4.4c0.2,1,0.7,1.6,1.4,1.9
				c0.7,0.3,1.9,0.4,3.4,0.4v1.6h-18.2v-1.6c1.5,0,2.5-0.1,3.2-0.4c0.7-0.3,1.2-0.9,1.4-1.9s0.3-2.4,0.3-4.4v-14.7
				c0-3.5-0.4-6.1-1.3-7.6c-0.9-1.6-2.3-2.3-4.3-2.3c-2.4,0-4.3,1.2-6,3.7c-1.4,2.1-2.1,4.4-2.1,6.8v14.2c0,2,0.1,3.4,0.3,4.4
				c0.2,1,0.7,1.6,1.4,1.9c0.7,0.3,1.8,0.4,3.3,0.4v1.6h-18v-1.6c1.5,0,2.5-0.1,3.2-0.4c0.7-0.3,1.2-0.9,1.4-1.9
				c0.2-1,0.3-2.4,0.3-4.4v-14.8c0-6.6-1.8-9.9-5.4-9.9c-2.3,0.1-4.2,1.2-5.7,3.2c-1.5,2.1-2.3,4.7-2.4,7.8V551c0,2,0.1,3.5,0.3,4.4
				c0.2,1,0.7,1.6,1.4,1.9c0.7,0.3,1.8,0.4,3.2,0.4v1.6h-18.2v-1.6c1.5,0,2.6-0.1,3.4-0.4c0.7-0.3,1.2-0.9,1.4-1.9s0.3-2.4,0.3-4.4
				v-18.6c0.1-2.7-0.2-4.5-0.8-5.3c-0.6-0.8-2-1.2-4.1-1.1v-1.6L2159.8,523.5z"/>
			<path d="M2256.1,526.6V549c0,1.5,0.1,2.7,0.2,3.6c0.1,1,0.3,1.8,0.5,2.4c0.3,0.7,0.7,1.3,1.3,1.8c0.6,0.4,1.3,0.7,2,0.7
				c1.4,0,3-0.7,4.7-2.1l0.9,1.7c-2.7,2.3-5.8,3.4-9.2,3.4c-3.7-0.1-6.2-1.3-7.6-3.7c-0.3-0.5-0.5-1.1-0.6-1.8
				c-0.1-0.7-0.2-1.6-0.3-2.8c-0.1-1.2-0.1-2.7-0.1-4.7v-20.9h-3.8v-2c1.5-0.1,2.7-0.4,3.7-0.9c1-0.6,1.9-1.4,2.7-2.6
				c0.6-0.9,1.1-1.9,1.5-3c0.4-1.1,0.7-2.5,1-4.1l3.4-0.3c0,0.9-0.1,1.8-0.1,2.7s-0.1,2-0.1,3.3s0,2.9,0,4.9h8.1v2.2h-8.2V526.6z"/>
			<path d="M2231.6,545.2V540c-4.8,0.3-8.2,1.2-10.2,2.7s-3,3.7-2.9,6.8c0,2.4,0.5,4.3,1.5,5.7s2.3,2.1,3.9,2.2
				c1.4,0,2.6-0.4,3.8-1.2c1.2-0.8,2.1-1.9,2.7-3.2c0.4-0.8,0.7-1.9,0.9-3.1C2231.5,548.6,2231.6,547.1,2231.6,545.2 M2244.1,558
				v1.4c-2,0.1-2.8,0.1-4.8,0.1c-1.6,0-3.3,0-4.7-0.6c-0.9-0.3-1.4-0.6-2-1.3c-0.5-0.7-0.7-0.8-0.9-2.8c-1.7,1.9-3.5,3.2-5.4,4.1
				c-1.9,0.9-3.9,1.3-6.1,1.3c-3.2,0-5.7-0.9-7.6-2.7c-1.8-1.7-2.7-4.1-2.8-7.2c0-5.8,3.6-9.3,10.7-10.7c3.2-0.6,6.9-1.1,11-1.3
				v-4.4c0-3.5-0.3-5.9-1.1-7.3c-0.8-1.3-2.1-2-4.1-1.9c-2.1,0-3.6,0.7-4.5,2.3c-0.3,0.5-0.6,1.2-0.7,1.9c-0.1,0.7-0.3,1.7-0.4,2.9
				c-0.1,1.2-0.4,2-1,2.5c-0.6,0.5-1.7,0.8-3.1,0.7c-3.1,0-4.7-1.1-4.7-3.1c0-1.2,0.4-2.3,1.1-3.4c0.7-1.1,1.7-2,3.1-2.8
				c2.8-1.7,6.5-2.6,11-2.5c4.6,0,7.9,0.9,9.9,2.8c0.9,0.8,1.6,1.9,2,3.3c0.4,1.3,0.6,3,0.6,5.1l-0.1,5.8l-0.1,5.8
				c-0.1,1.9-0.1,3.1-0.1,3.6c0,2.4,0.1,4.2,0.2,5.3c0.2,1.1,0.4,1.6,1.1,2.2C2242.1,558,2243.2,558,2244.1,558"/>
			<path d="M2289.3,545.2V540c-4.8,0.3-8.2,1.2-10.2,2.7s-3,3.7-2.9,6.8c0,2.4,0.5,4.3,1.5,5.7s2.3,2.1,3.9,2.2
				c1.4,0,2.6-0.4,3.8-1.2c1.2-0.8,2.1-1.9,2.7-3.2c0.4-0.8,0.7-1.9,0.9-3.1C2289.2,548.7,2289.3,547.1,2289.3,545.2 M2301.8,558
				v1.4c-2,0.1-2.8,0.1-4.8,0.1c-1.6,0-3.3,0-4.7-0.6c-0.9-0.3-1.4-0.6-2-1.3c-0.5-0.7-0.7-0.8-0.9-2.8c-1.7,1.9-3.5,3.2-5.4,4.1
				c-1.9,0.9-3.9,1.3-6.1,1.3c-3.2,0-5.7-0.9-7.6-2.7c-1.8-1.7-2.7-4.1-2.8-7.2c0-5.8,3.6-9.3,10.7-10.7c3.2-0.6,6.9-1.1,11-1.3
				v-4.4c0-3.5-0.3-5.9-1.1-7.3c-0.8-1.3-2.1-2-4.1-1.9c-2.1,0-3.6,0.7-4.5,2.3c-0.3,0.5-0.6,1.2-0.7,1.9c-0.1,0.7-0.3,1.7-0.4,2.9
				s-0.4,2-1,2.5c-0.6,0.5-1.7,0.8-3.1,0.7c-3.1,0-4.7-1.1-4.7-3.1c0-1.2,0.4-2.3,1.1-3.4c0.7-1.1,1.7-2,3.1-2.8
				c2.8-1.7,6.5-2.6,11-2.6c4.6,0,7.9,0.9,9.9,2.8c0.9,0.8,1.6,1.9,2,3.3c0.4,1.3,0.6,3,0.6,5.1l-0.1,5.8l-0.1,5.8
				c-0.1,1.9-0.1,3.1-0.1,3.6c0,2.4,0.1,4.2,0.2,5.3c0.2,1.1,0.4,1.6,1.1,2.2C2299.9,558,2301,558,2301.8,558"/>
		</g>
		<polygon class="st12" points="2440,475.5 2439.9,478.1 2489.4,536.2 2491.2,536.5 2491.4,536.4 2492.3,534.8 2471.2,464 
			2467.6,461.6 		"/>
		<polygon class="st13" points="2439.9,478.1 2489.4,536.2 2491.2,536.5 2454.6,480.9 		"/>
		<polygon class="st14" points="2467.6,461.6 2454.9,476.5 2460.1,478.7 2471.2,464 2471.2,464 		"/>
		<polygon class="st15" points="2439.9,478.1 2454.6,480.9 2454.9,476.5 2440,475.5 		"/>
		<polygon class="st15" points="2460.1,478.7 2491.4,536.4 2492.3,534.8 2471.2,464 		"/>
		<polygon class="st16" points="2519.5,460.2 2551.6,474.9 2551.7,479.1 2499.1,558.8 2496.7,559.4 2496.3,559.2 2495.5,557.5 
			2516.7,461.8 		"/>
		<polygon class="st17" points="2530.3,480.9 2496.7,559.4 2499,558.8 2551.7,479.1 		"/>
		<polygon class="st18" points="2516.7,461.8 2495.5,557.4 2496.3,559.2 2524.2,477.6 		"/>
		<polygon class="st19" points="2529.1,475.2 2530.3,480.9 2551.7,479.1 2551.6,474.9 2551.6,474.9 		"/>
		<polygon class="st17" points="2516.7,461.8 2524.2,477.6 2529.1,475.2 2519.5,460.2 		"/>
		<polygon class="st20" points="2470.6,437.5 2471.9,435.1 2512.9,434.6 2515.5,437.4 2495.9,503.1 2494.6,503.8 2494.6,503.8 
			2493.3,502.9 		"/>
		<polygon class="st21" points="2470.6,437.5 2486.5,445.4 2489.4,441.9 2471.9,435.1 		"/>
		<polygon class="st22" points="2470.6,437.5 2493.3,502.9 2494.6,503.8 2486.5,445.4 		"/>
		<polygon class="st21" points="2494.2,445.5 2494.6,503.8 2495.9,503.1 2515.5,437.4 		"/>
		<polygon class="st23" points="2512.9,434.6 2489.4,441.9 2494.2,445.4 2515.5,437.4 		"/>
	</g>
	<g>
		<path class="st24" d="M822.8,524.8c0-5.7-0.1-10.4-0.4-14.6h10.7l0.5,7.3h0.3c2.4-3.8,6.9-8.4,15.1-8.4c6.5,0,11.5,3.6,13.6,9.1
			h0.2c1.7-2.7,3.7-4.7,6-6.2c2.7-1.9,5.9-2.9,9.9-2.9c8.2,0,16.4,5.6,16.4,21.3v29h-11.9v-27.2c0-8.2-2.8-13-8.8-13
			c-4.2,0-7.4,3-8.7,6.6c-0.3,1.2-0.6,2.7-0.6,4.1v29.5H853v-28.5c0-6.8-2.7-11.7-8.5-11.7c-4.6,0-7.8,3.6-8.9,7.1
			c-0.5,1.2-0.7,2.6-0.7,4v29.1h-12.1L822.8,524.8L822.8,524.8z"/>
		<path class="st24" d="M942.5,547.6c0,4.4,0.2,8.8,0.7,11.8H932l-0.8-5.4h-0.3c-3,3.8-8.2,6.6-14.5,6.6c-9.9,0-15.4-7.2-15.4-14.6
			c0-12.4,11-18.7,29.2-18.6v-0.8c0-3.2-1.3-8.6-10-8.6c-4.8,0-9.9,1.5-13.2,3.6l-2.4-8.1c3.6-2.2,10-4.3,17.8-4.3
			c15.8,0,20.3,10,20.3,20.7v17.7H942.5z M930.4,535.3c-8.8-0.2-17.2,1.7-17.2,9.2c0,4.8,3.1,7.1,7.1,7.1c4.9,0,8.6-3.2,9.7-6.8
			c0.3-0.9,0.4-1.9,0.4-2.7V535.3z"/>
		<path class="st24" d="M951.1,524.8c0-5.7-0.1-10.4-0.4-14.6h10.9l0.6,7.4h0.3c2.1-3.8,7.5-8.5,15.6-8.5c8.6,0,17.5,5.6,17.5,21.1
			v29.2h-12.4v-27.8c0-7.1-2.6-12.4-9.4-12.4c-4.9,0-8.4,3.5-9.7,7.3c-0.4,1.1-0.5,2.6-0.5,4v28.9h-12.5V524.8z"/>
		<path class="st24" d="M1049.4,490.5v55.1c0,5,0.2,10.5,0.4,13.8h-11.1l-0.5-7.8h-0.2c-2.9,5.4-8.9,8.9-16,8.9
			c-11.7,0-21-10-21-25.1c-0.1-16.5,10.2-26.3,22-26.3c6.8,0,11.6,2.8,13.8,6.5h0.2v-25.1L1049.4,490.5L1049.4,490.5z M1037,530.7
			c0-1-0.1-2.2-0.3-3.2c-1.1-4.8-5-8.8-10.7-8.8c-8,0-12.4,7.1-12.4,16.2c0,9,4.4,15.5,12.3,15.5c5,0,9.5-3.4,10.7-8.8
			c0.3-1.1,0.4-2.3,0.4-3.6V530.7z"/>
		<rect x="1058.2" y="510.2" class="st24" width="12.5" height="49.2"/>
		<path class="st24" d="M1079.5,526.1c0-6.7-0.1-11.4-0.4-15.9h10.8l0.4,9.4h0.4c2.4-7,8.2-9.4,13.4-9.4c1.2,0,1.9-0.2,2.9,0v10.9
			c-1-0.2-2.1-0.4-3.6-0.4c-6,0-10,3.8-11.1,9.4c-0.2,1.1-0.4,2.4-0.4,3.8v25.4h-12.4L1079.5,526.1L1079.5,526.1z"/>
		<rect x="1112.8" y="510.2" class="st24" width="12.5" height="49.2"/>
		
			<linearGradient id="SVGID_1_" gradientUnits="userSpaceOnUse" x1="1226.3563" y1="1516.9752" x2="1228.1279" y2="1516.9752" gradientTransform="matrix(144.6874 -66.855 -66.855 -144.6874 -75027.2812 301996.3438)">
			<stop  offset="0" style="stop-color:#FDB913"/>
			<stop  offset="0.2247" style="stop-color:#FFCB05"/>
			<stop  offset="0.3933" style="stop-color:#FAA61A"/>
			<stop  offset="0.5281" style="stop-color:#FFCB05"/>
			<stop  offset="0.6461" style="stop-color:#FAA61A"/>
			<stop  offset="0.764" style="stop-color:#FFCB05"/>
			<stop  offset="1" style="stop-color:#FFCB05"/>
		</linearGradient>
		<path class="st25" d="M1110.2,450.7c-7.5,4.4-32.1,18.4-32.1,18.4c-9.2,3.8-16.3-0.8-18.6-4.2l-0.3-0.4l-0.3-0.5l-1.6-2.5
			c-0.7-1.1-1.4-2.1-2.3-3.2c-0.8-1-1.6-1.9-2.5-2.9c-5.9-6-15.4-10.2-31.2-2.7c-9.5,5.4-31.7,18.1-31.7,18.1l0,0
			c-9.1,5.2-16.2,9.3-16.2,9.3l8.4,10.3c3.5,3.4,10.2,8.9,20.5,4.2l28.5-16.5c24.3-13.3,36.2-0.6,41.5,7.9c0.2,0.3,0.3,0.6,0.5,0.8
			l0,0l0.2,0.3l0.6,1c2.6,3.9,6.6,6.4,11.5,6.3c2.7-0.1,4.5-0.9,7.1-2.4l27.5-15.9h0.1c24.6-13.5,36.7,0.1,41.9,8.6
			c0.4,0.7,0.9,1.4,1.3,2.1c2.6,3.5,6.1,5.8,10.6,5.7c3-0.1,6.3-1.8,6.8-2.2l32.9-19c0,0-3.4-5.1-10.3-13c-6.2-7.1-12.8-3.9-18-1.3
			c-2.2,1.1-18.1,10.1-18.1,10.1c-8.7,3.6-15.5-0.3-18.2-3.6c-0.3-0.4-0.5-0.7-0.7-1l-0.6-1.1c-1-1.6-2.1-3.4-3.5-5.2
			c-0.7-1-1.6-1.9-2.5-2.9c-3.7-3.7-8.7-6.7-15.7-6.7C1121.6,446.6,1116.4,447.7,1110.2,450.7"/>
	</g>
	<g>
		<path class="st26" d="M1674.4,463h21.5l52.3,70.4c0,0,0-53.6,0-59.7c0-6-8.3-10.5-8.3-10.5h26.8c0,0-7,4-7,10.4s0,90.5,0,90.5
			s-12.4-5-21.8-17.8c-9.4-12.7-44.6-58.7-44.6-58.7s0,57.7,0,62c0,4.4,7.4,9.7,7.4,9.7h-26.5c0,0,7.4-4,7.4-9.4s0-67.4,0-75.4
			C1681.6,466.6,1674.4,463,1674.4,463"/>
		<path class="st26" d="M1789.5,533.4v-59.7c0-6-8.3-10.5-8.3-10.5h31.4c0,0-7,4-7,10.4v74.8c0,5.7,6.7,10.1,6.7,10.1l-30.2,0.3
			c0,0,7.4-4.6,7.4-9.3C1789.5,544.8,1789.5,533.4,1789.5,533.4"/>
		<path class="st26" d="M1586.1,462.9h46.3c10.4,0,22.3,8.8,22.3,20.9c0,16.4-12.6,18.7-12.6,18.7s22.1,5.4,22.1,26.5
			c0,21.1-24.1,29.2-32.2,29.2h-46.6c0,0,8-4.4,8-11.4v-72.4C1593.4,466.9,1586.1,462.9,1586.1,462.9 M1609.4,510.6v37.5h18.1
			c7,0,20.1-6,20.1-17.8c0-11.7-10.7-19.8-20.8-19.8h-17.4V510.6z M1609.4,472.4v28.8h13.7c6.4,0,15.4-3.4,15.4-15.1
			s-13.4-13.7-18.1-13.7L1609.4,472.4L1609.4,472.4z"/>
		<rect x="1465.3" y="462.8" class="st27" width="95.9" height="95.9"/>
		<path class="st10" d="M1496.1,462.8h12.1c0,0-2,6,0,18.8c2,12.7,12.1,22.1,12.1,22.1s-3.4-8,10.1-22.1
			c13.4-14.1,30.8-5.4,30.8-5.4V493c0,0-12.1-15.4-24.8-8c-9.4,5.4-14.7,13.4-2.7,32.9c12.1,19.4,27.5,12.1,27.5,12.1v4.7
			c0,0-6.7,6-20.1,4c-8.3-1.3-15.1-6.6-22.4-15.3l-11.7,9.4c7.4,8.9,13.3,15.4,15.4,16.6c6.7,4,11.4,4,11.4,4l-6.7,5.4h-15.4
			c0,0,1.3-3.4-1.3-6c-2.7-2.7-11.2-13.9-11.2-13.9l-24.4,19.9h-9l29.1-24.1l-29.5-36.2v-18.1c0,0,21.4,27.6,38.1,48l11.5-9.4
			c-3.2-4.1-7.1-9.5-10.8-14.4C1490.1,485.6,1496.1,462.8,1496.1,462.8"/>
	</g>
</g>
</svg>
